<svg width="16" height="16" viewBox="0 0 16 16" fill="none" xmlns="http://www.w3.org/2000/svg">
<path d="M15.3764 12.6633C14.7988 13.3498 13.7325 13.6299 11.6961 13.6299H4.30379C2.22075 13.6299 1.13636 13.3318 0.560981 12.6008C0 11.8882 0 10.8381 0 9.38477V6.61476C0 3.79922 0.6656 2.3697 4.30379 2.3697H11.6961C13.4621 2.3697 14.4407 2.61682 15.0738 3.22271C15.723 3.84402 16 4.85848 16 6.61476V9.38477C16 10.9174 15.9566 11.9737 15.3764 12.6633ZM10.2721 7.61734L6.91525 5.86297C6.84021 5.82374 6.75814 5.80428 6.67618 5.80428C6.58338 5.80428 6.49079 5.82926 6.40877 5.87892C6.25435 5.97249 6.16005 6.13987 6.16005 6.32041V9.81791C6.16005 9.99814 6.25409 10.1654 6.40821 10.259C6.56237 10.3526 6.75412 10.359 6.91406 10.2759L10.2709 8.53285C10.4417 8.44418 10.5489 8.26787 10.5492 8.07551C10.5494 7.88299 10.4426 7.70642 10.2721 7.61734Z" fill="#EFEFEF"/>
</svg>
