<svg width="13" height="13" viewBox="0 0 13 13" fill="none" xmlns="http://www.w3.org/2000/svg">
<g clip-path="url(#clip0_410_12)">
<path d="M9.48744 0H3.51256C1.57574 0 0 1.57574 0 3.51256V9.48744C0 11.4243 1.57574 13 3.51256 13H9.48744C11.4243 13 13 11.4243 13 9.48744V3.51256C13 1.57574 11.4243 0 9.48744 0ZM11.9497 9.48744C11.9497 10.8451 10.8452 11.9497 9.48744 11.9497H3.51256C2.15485 11.9497 1.05026 10.8452 1.05026 9.48744V3.51256C1.05026 2.15485 2.15483 1.05026 3.51256 1.05026H9.48744C10.8451 1.05026 11.9497 2.15483 11.9497 3.51256V9.48744Z" fill="#EFEFEF"/>
<path d="M9.40961 6.0466C9.31719 5.42333 9.03284 4.85844 8.58731 4.41291C8.14178 3.96741 7.57689 3.68303 6.95365 3.59064C6.66988 3.54856 6.38218 3.54856 6.09844 3.59064C5.32819 3.70487 4.64856 4.11219 4.1847 4.73758C3.72084 5.36298 3.52825 6.1316 3.64248 6.9018C3.75671 7.67203 4.16403 8.35166 4.78943 8.81555C5.29714 9.19211 5.89915 9.38986 6.51987 9.38986C6.66376 9.38986 6.80869 9.37924 6.95362 9.35774C7.72387 9.24351 8.4035 8.83619 8.86737 8.21079C9.33125 7.58542 9.52384 6.81682 9.40961 6.0466ZM6.79958 8.31883C6.30687 8.392 5.81518 8.26873 5.4151 7.97199C5.01502 7.67525 4.75446 7.24046 4.68142 6.74776C4.60834 6.25505 4.73151 5.76336 5.02825 5.36328C5.32502 4.9632 5.75978 4.70264 6.25251 4.62957C6.34326 4.61611 6.43464 4.60938 6.52602 4.60938C6.6174 4.60938 6.70881 4.61611 6.79955 4.6296C7.61792 4.75094 8.24931 5.3823 8.37067 6.20069C8.52149 7.21779 7.81673 8.16801 6.79958 8.31883Z" fill="#EFEFEF"/>
<path d="M10.1577 2.84229C10.0599 2.74451 9.92456 2.68848 9.78638 2.68848C9.64821 2.68848 9.51285 2.74449 9.41505 2.84229C9.31727 2.9401 9.26123 3.07523 9.26123 3.21363C9.26123 3.35204 9.31727 3.48717 9.41505 3.58497C9.51285 3.68275 9.64821 3.73879 9.78638 3.73879C9.92456 3.73879 10.0599 3.68277 10.1577 3.58497C10.2555 3.48717 10.3115 3.35181 10.3115 3.21363C10.3115 3.07543 10.2555 2.94007 10.1577 2.84229Z" fill="#EFEFEF"/>
</g>
<defs>
<clipPath id="clip0_410_12">
<rect width="13" height="13" fill="white"/>
</clipPath>
</defs>
</svg>
